<svg width="358" height="308" viewBox="0 0 358 308" fill="none" xmlns="http://www.w3.org/2000/svg">
<g opacity="0.47">
<path opacity="0.47" d="M14.9304 307.197H9.76837L0.568359 299.919V295.835L14.9304 307.197Z" fill="#3D4E66"/>
<path opacity="0.47" d="M41.2134 307.197H36.0513L0.568359 279.127V275.043L41.2134 307.197Z" fill="#3D4E66"/>
<path opacity="0.47" d="M60.9873 302.048V306.132L0.570312 258.334V254.25L60.9873 302.048Z" fill="#3D4E66"/>
<path opacity="0.47" d="M60.9873 281.257V285.341L0.570312 237.543V233.459L60.9873 281.257Z" fill="#3D4E66"/>
<path opacity="0.47" d="M60.9873 260.464V264.548L0.570312 216.751V212.667L60.9873 260.464Z" fill="#3D4E66"/>
<path opacity="0.47" d="M60.9873 239.673V243.757L0.570312 195.958V191.874L60.9873 239.673Z" fill="#3D4E66"/>
<path opacity="0.47" d="M60.9873 218.881V222.965L0.570312 175.166V171.083L60.9873 218.881Z" fill="#3D4E66"/>
<path opacity="0.47" d="M60.9873 198.089V202.172L0.570312 154.374V150.291L60.9873 198.089Z" fill="#3D4E66"/>
<path opacity="0.47" d="M60.9873 177.296V181.38L0.570312 133.582V129.499L60.9873 177.296Z" fill="#3D4E66"/>
<path opacity="0.47" d="M60.9873 156.505V160.589L0.570312 112.79V108.707L60.9873 156.505Z" fill="#3D4E66"/>
<path opacity="0.47" d="M60.9873 135.713V139.796L0.570312 91.9982V87.9145L60.9873 135.713Z" fill="#3D4E66"/>
<path opacity="0.47" d="M60.9873 114.92V119.004L0.570312 71.2055V67.1219L60.9873 114.92Z" fill="#3D4E66"/>
<path opacity="0.47" d="M60.9873 94.1287V98.2123L0.570312 50.4148V46.3312L60.9873 94.1287Z" fill="#3D4E66"/>
<path opacity="0.47" d="M60.9873 73.3359V77.4195L0.570312 29.6244V25.5407L60.9873 73.3359Z" fill="#3D4E66"/>
<path opacity="0.47" d="M60.9873 52.5445V56.6282L0.570312 8.82987V4.74622L60.9873 52.5445Z" fill="#3D4E66"/>
<path opacity="0.47" d="M82.2997 48.611H77.1378L16.7188 0.813477H21.8767L82.2997 48.611Z" fill="#3D4E66"/>
<path opacity="0.47" d="M108.581 48.611H103.419L43.0039 0.813477H48.1659L108.581 48.611Z" fill="#3D4E66"/>
<path opacity="0.47" d="M134.863 48.611H129.701L69.2822 0.813477H74.4442L134.863 48.611Z" fill="#3D4E66"/>
<path opacity="0.47" d="M161.146 48.611H155.984L95.5605 0.813477H100.723L161.146 48.611Z" fill="#3D4E66"/>
<path opacity="0.47" d="M187.429 48.611H182.267L121.847 0.813477H127.009L187.429 48.611Z" fill="#3D4E66"/>
<path opacity="0.47" d="M213.712 48.611H208.55L148.131 0.813477H153.293L213.712 48.611Z" fill="#3D4E66"/>
<path opacity="0.47" d="M239.993 48.611H234.831L174.412 0.813477H179.574L239.993 48.611Z" fill="#3D4E66"/>
<path opacity="0.47" d="M266.273 48.611H261.111L200.694 0.813477H205.856L266.273 48.611Z" fill="#3D4E66"/>
<path opacity="0.47" d="M292.559 48.611H287.397L226.977 0.813477H232.139L292.559 48.611Z" fill="#3D4E66"/>
<path opacity="0.47" d="M318.841 48.611H313.679L253.26 0.813477H258.422L318.841 48.611Z" fill="#3D4E66"/>
<path opacity="0.47" d="M345.122 48.611H339.957L279.541 0.813477H284.703L345.122 48.611Z" fill="#3D4E66"/>
<path opacity="0.47" d="M357.043 37.2492V41.3328L305.828 0.813477H310.99L357.043 37.2492Z" fill="#3D4E66"/>
<path opacity="0.47" d="M357.043 16.4575V20.5411L332.11 0.813477H337.272L357.043 16.4575Z" fill="#3D4E66"/>
</g>
</svg>
