<svg width="358" height="308" viewBox="0 0 358 308" fill="none" xmlns="http://www.w3.org/2000/svg">
<g opacity="0.47">
<path opacity="0.47" d="M342.681 0.72168H347.843L357.043 7.99979V12.0835L342.681 0.72168Z" fill="#3D4E66"/>
<path opacity="0.47" d="M316.398 0.72168H321.56L357.043 28.7923V32.8759L316.398 0.72168Z" fill="#3D4E66"/>
<path opacity="0.47" d="M296.625 5.87033V1.78668L357.044 49.5842V53.6678L296.625 5.87033Z" fill="#3D4E66"/>
<path opacity="0.47" d="M296.625 26.6627V22.579L357.044 70.3773V74.461L296.625 26.6627Z" fill="#3D4E66"/>
<path opacity="0.47" d="M296.625 47.4545V43.3708L357.044 91.1691V95.2528L296.625 47.4545Z" fill="#3D4E66"/>
<path opacity="0.47" d="M296.625 68.246V64.1615L357.044 111.96V116.043L296.625 68.246Z" fill="#3D4E66"/>
<path opacity="0.47" d="M296.625 89.0378V84.9541L357.044 132.752V136.835L296.625 89.0378Z" fill="#3D4E66"/>
<path opacity="0.47" d="M296.625 109.831V105.747L357.044 153.545V157.628L296.625 109.831Z" fill="#3D4E66"/>
<path opacity="0.47" d="M296.625 130.623V126.539L357.044 174.337V178.421L296.625 130.623Z" fill="#3D4E66"/>
<path opacity="0.47" d="M296.625 151.414V147.331L357.044 195.129V199.213L296.625 151.414Z" fill="#3D4E66"/>
<path opacity="0.47" d="M296.625 172.206V168.122L357.044 215.92V220.004L296.625 172.206Z" fill="#3D4E66"/>
<path opacity="0.47" d="M296.625 192.999V188.915L357.044 236.713V240.797L296.625 192.999Z" fill="#3D4E66"/>
<path opacity="0.47" d="M296.625 213.791V209.707L357.044 257.506V261.589L296.625 213.791Z" fill="#3D4E66"/>
<path opacity="0.47" d="M296.625 234.585V230.502L357.044 278.299V282.383L296.625 234.585Z" fill="#3D4E66"/>
<path opacity="0.47" d="M296.625 255.375V251.291L357.044 299.088V303.172L296.625 255.375Z" fill="#3D4E66"/>
<path opacity="0.47" d="M275.313 259.308H280.471L340.89 307.105H335.728L275.313 259.308Z" fill="#3D4E66"/>
<path opacity="0.47" d="M249.034 259.308H254.196L314.615 307.105H309.453L249.034 259.308Z" fill="#3D4E66"/>
<path opacity="0.47" d="M222.748 259.308H227.91L288.329 307.105H283.167L222.748 259.308Z" fill="#3D4E66"/>
<path opacity="0.47" d="M196.461 259.308H201.623L262.042 307.105H256.88L196.461 259.308Z" fill="#3D4E66"/>
<path opacity="0.47" d="M170.183 259.308H175.345L235.764 307.105H230.602L170.183 259.308Z" fill="#3D4E66"/>
<path opacity="0.47" d="M143.9 259.308H149.062L209.481 307.105H204.319L143.9 259.308Z" fill="#3D4E66"/>
<path opacity="0.47" d="M117.618 259.308H122.78L183.199 307.105H178.037L117.618 259.308Z" fill="#3D4E66"/>
<path opacity="0.47" d="M91.335 259.308H96.4969L156.914 307.105H151.752L91.335 259.308Z" fill="#3D4E66"/>
<path opacity="0.47" d="M65.0527 259.308H70.2147L130.634 307.105H125.472L65.0527 259.308Z" fill="#3D4E66"/>
<path opacity="0.47" d="M38.7715 259.308H43.9335L104.352 307.105H99.1905L38.7715 259.308Z" fill="#3D4E66"/>
<path opacity="0.47" d="M12.4883 259.308H17.6503L78.0693 307.105H72.9043L12.4883 259.308Z" fill="#3D4E66"/>
<path opacity="0.47" d="M0.572266 270.669V266.586L51.7913 307.105H46.6293L0.572266 270.669Z" fill="#3D4E66"/>
<path opacity="0.47" d="M0.572266 291.462V287.378L25.5083 307.105H20.3463L0.572266 291.462Z" fill="#3D4E66"/>
</g>
</svg>
